<!DOCTYPE svg PUBLIC "-//W3C//DTD SVG 1.1//EN" "http://www.w3.org/Graphics/SVG/1.1/DTD/svg11.dtd">
<!-- Uploaded to: SVG Repo, www.svgrepo.com, Transformed by: SVG Repo Mixer Tools -->

<svg fill="#ffffff" height="119px" width="119px" version="1.1" id="Capa_1" xmlns="http://www.w3.org/2000/svg" xmlns:xlink="http://www.w3.org/1999/xlink" viewBox="-49 -49 588.00 588.00" xml:space="preserve" stroke="#ffffff" stroke-width="15.190000000000001">
<g id="SVGRepo_bgCarrier" stroke-width="0"/>
<g id="SVGRepo_tracerCarrier" stroke-linecap="round" stroke-linejoin="round"/>
<g id="SVGRepo_iconCarrier"> <g> <g> <g> <path d="M366.5,98V9.7c0-5.4-4.3-9.7-9.7-9.7h-224c-5.4,0-9.7,4.3-9.7,9.7V98H4.9v131.1H66v-25.7h50.9v25.7h255.9v-25.7h50.9 v25.7h61.4V98H366.5z M142.5,19.4h204.6V98H142.5V19.4z"/> <polygon points="423.7,274.2 372.8,274.2 372.8,248.9 116.9,248.9 116.9,274.2 65.9,274.2 65.9,248.9 4.9,248.9 4.9,490 484.7,490 484.7,248.9 423.7,248.9 "/> </g> </g> </g> </g>
</svg>